:SAMPLES-PER-SECOND 30
:FULLY-SPECIFIED
:DEGREES
32
root  84.1809 31.5653 0.927098 -38.0137 -85.8517 36.9426
RightUpLeg  -35.1403 0.740481 -4.32538
RightLeg  70.9354 -1.31766 -5.15909
RightFoot  -33.3422 0.403454 3.24526
RightToes  1.45519e-009 0 -3.6325e-017
Spine  34.0046 -2.32226 4.22098
Spine1  6.18921 -2.14211 3.35666
HEad  -11.105 0.421965 -1.27446
LeftShoulder1  0.492193 1.89411 -24.316
LeftArm  4.17589 -20.2484 -65.8908
LeftForeArm  56.7526 -78.6497 -70.8759
LeftHand  0.08296 8.08804 5.11896
RightShoulder  -0.190823 -4.07297 25.5756
RightArm  15.7255 3.09069 48.3338
RightForeArm  154.875 70.9553 149.866
RightHand  -0.0699988 4.59998 -1.1172
LeftUpLeg  -41.2231 6.94631 9.62202
LeftLeg  72.189 0.591582 3.0735
LeftFoot  -13.4213 -0.0466442 -5.88674
LeftToes  -2.53752e-010 -2.07034e-011 -2.70101e-011
33
root  83.796 31.7271 0.775121 -37.2023 -85.3135 35.9531
RightUpLeg  -33.7091 0.417442 -4.20399
RightLeg  70.322 -1.49478 -5.52368
RightFoot  -33.7839 0.380196 3.0777
RightToes  1.45519e-009 0 -3.6325e-017
Spine  33.9712 -2.1528 4.31657
Spine1  5.62638 -1.85251 2.97943
HEad  -10.1819 1.1608 -1.15053
LeftShoulder1  0.445557 2.05706 -24.5225
LeftArm  4.60229 -20.8943 -65.7362
LeftForeArm  57.4592 -78.7097 -72.3887
LeftHand  0.0891568 8.14959 5.293
RightShoulder  -0.312356 -4.43395 26.2174
RightArm  15.8345 4.01822 47.5157
RightForeArm  155.477 70.331 150.926
RightHand  -0.0131382 5.16138 -0.46847
LeftUpLeg  -43.0917 8.0185 8.80693
LeftLeg  74.1578 0.941068 4.90924
LeftFoot  -6.60068 0.165475 -2.91244
LeftToes  -2.53752e-010 -2.07034e-011 -2.70101e-011
34
root  83.3494 31.8967 0.707239 -29.8992 -84.5248 28.5572
RightUpLeg  -32.0895 -0.646257 -3.94778
RightLeg  69.5156 -1.60354 -5.58741
RightFoot  -34.2931 0.353223 2.89155
RightToes  1.45519e-009 0 -3.6325e-017
Spine  32.309 -2.51755 4.97878
Spine1  7.25342 -2.01699 2.26868
HEad  -10.8673 1.35527 -0.937273
LeftShoulder1  0.369165 2.28011 -23.8932
LeftArm  4.41222 -21.2856 -66.0482
LeftForeArm  61.6545 -78.9274 -75.646
LeftHand  0.0605362 7.20619 5.83953
RightShoulder  -0.0624814 -3.68291 24.6168
RightArm  14.7967 3.86924 49.6476
RightForeArm  157.443 69.8994 151.838
RightHand  -0.0540788 4.3077 -0.951442
LeftUpLeg  -44.7242 8.97872 7.81478
LeftLeg  74.6128 1.03945 5.52698
LeftFoot  -4.19667 0.118243 -1.43197
LeftToes  -2.53752e-010 -2.07034e-011 -2.70101e-011
35
root  82.873 32.1784 0.602161 -26.3342 -83.8441 25.0311
RightUpLeg  -30.3104 -1.43196 -3.70019
RightLeg  68.093 -1.77207 -5.62456
RightFoot  -34.5319 0.3492 2.8497
RightToes  1.45519e-009 0 -3.6325e-017
Spine  31.3007 -2.28067 4.79228
Spine1  8.03953 -1.92836 2.31882
HEad  -19.7777 -1.05698 -1.54203
LeftShoulder1  0.370573 2.25784 -23.4372
LeftArm  3.93547 -21.2566 -65.8734
LeftForeArm  66.6925 -79.1298 -80.8584
LeftHand  0.0618586 7.35771 5.64043
RightShoulder  -0.116765 -3.85943 24.2014
RightArm  14.9177 4.90962 50.567
RightForeArm  157.024 69.9322 151.73
RightHand  0.0196846 5.74981 -0.104709
LeftUpLeg  -45.6942 10.5499 6.6563
LeftLeg  72.4649 0.24239 1.86668
LeftFoot  -5.53657 0.176864 -2.84385
LeftToes  -2.53752e-010 -2.07034e-011 -2.70101e-011
36
root  82.3385 32.4404 0.577231 -24.7765 -82.0847 23.7951
RightUpLeg  -28.6308 -3.27469 -4.39486
RightLeg  66.8049 -1.84257 -5.42818
RightFoot  -35.057 0.375519 2.92783
RightToes  1.45519e-009 0 -3.6325e-017
Spine  30.5001 -2.40538 4.1934
Spine1  7.72309 -2.29316 2.138
HEad  -20.4021 -0.984815 -1.80123
LeftShoulder1  0.306628 2.48275 -23.7126
LeftArm  3.96291 -21.3594 -65.1049
LeftForeArm  69.6187 -79.2261 -82.5991
LeftHand  0.0495732 7.53713 4.7012
RightShoulder  -0.236194 -4.23282 24.9423
RightArm  15.5174 5.58139 49.9773
RightForeArm  156.164 69.7269 151.916
RightHand  -0.00558838 6.35846 -0.55309
LeftUpLeg  -46.7988 10.9982 4.33625
LeftLeg  68.45 -0.0593786 0.625715
LeftFoot  -6.2905 0.223162 -4.1885
LeftToes  -2.53752e-010 -2.07034e-011 -2.70101e-011
37
root  81.8139 32.7538 0.536819 -23.4767 -80.9572 23.046
RightUpLeg  -27.1946 -4.32738 -4.65049
RightLeg  65.1585 -2.08348 -5.5652
RightFoot  -35.1857 0.414864 3.10268
RightToes  1.45519e-009 0 -3.6325e-017
Spine  29.2376 -2.26527 3.54244
Spine1  8.30537 -2.36162 1.84501
HEad  -21.2955 -1.71735 -1.63216
LeftShoulder1  0.288479 2.52784 -23.3026
LeftArm  3.58028 -21.1671 -64.7654
LeftForeArm  72.426 -79.2793 -85.5329
LeftHand  0.0859302 7.33953 6.85571
RightShoulder  -0.307041 -4.44983 25.1528
RightArm  15.7109 6.34184 50.5196
RightForeArm  157.495 69.5074 152.339
RightHand  0.162376 5.5349 2.4492
LeftUpLeg  -47.582 12.1633 2.36845
LeftLeg  62.6647 -0.112633 0.375369
LeftFoot  -6.51654 0.240812 -4.78561
LeftToes  -2.53752e-010 -2.07034e-011 -2.70101e-011
38
root  81.3188 33.0666 0.512874 -21.8156 -80.1152 21.4865
RightUpLeg  -25.3738 -5.11904 -4.67106
RightLeg  63.474 -2.29581 -5.6019
RightFoot  -35.033 0.463815 3.35102
RightToes  1.45519e-009 0 -3.6325e-017
Spine  29.1894 -1.91621 3.37793
Spine1  8.41152 -1.85283 1.10951
HEad  -22.3837 -3.09401 -1.13268
LeftShoulder1  0.377889 2.19107 -22.4008
LeftArm  3.27205 -21.5481 -65.4363
LeftForeArm  72.626 -79.3 -85.092
LeftHand  0.115906 7.97072 6.75257
RightShoulder  -0.144004 -3.95149 24.1101
RightArm  14.1022 5.42637 51.3209
RightForeArm  163.923 67.63 155.6
RightHand  0.413857 -0.324379 9.10023
LeftUpLeg  -47.3942 13.167 0.905514
LeftLeg  55.7496 0.19789 0.80025
LeftFoot  -6.14166 0.298432 -5.74752
LeftToes  -2.53752e-010 -2.07034e-011 -2.70101e-011
39
root  80.7995 33.3142 0.583696 -20.2642 -79.0978 20.1962
RightUpLeg  -23.743 -6.21968 -4.97984
RightLeg  62.028 -2.39136 -5.43946
RightFoot  -35.1385 0.515714 3.58532
RightToes  1.45519e-009 0 -3.6325e-017
Spine  29.9223 -1.93737 3.26946
Spine1  6.91859 -1.69647 0.323521
HEad  -24.1985 -3.67064 -1.1158
LeftShoulder1  0.368777 2.22494 -22.4752
LeftArm  3.18637 -20.9852 -64.6488
LeftForeArm  74.1505 -79.3282 -86.4002
LeftHand  0.0402887 6.62147 6.48904
RightShoulder  -0.238545 -4.23717 25.112
RightArm  15.535 5.00261 50.9654
RightForeArm  164.682 68.0987 155.125
RightHand  0.435886 2.1273 6.84916
LeftUpLeg  -47.0695 13.1602 -0.551348
LeftLeg  48.6559 0.39845 0.957161
LeftFoot  -4.88635 0.399248 -6.56907
LeftToes  -2.53752e-010 -2.07034e-011 -2.70101e-011
40
root  80.2537 33.4076 0.700344 -18.5496 -78.8597 18.8118
RightUpLeg  -22.6314 -6.5649 -4.90701
RightLeg  61.3036 -2.48171 -5.44856
RightFoot  -35.4827 0.60267 3.95086
RightToes  1.45519e-009 0 -3.6325e-017
Spine  30.243 -1.59427 3.38076
Spine1  6.36789 -1.10584 -0.459371
HEad  -24.6198 -2.63501 -1.29552
LeftShoulder1  0.38807 2.15937 -22.5024
LeftArm  2.78019 -21.0393 -64.3961
LeftForeArm  74.8613 -79.3616 -86.3192
LeftHand  0.0161781 6.50967 4.70397
RightShoulder  -0.278879 -4.35488 25.5112
RightArm  15.7441 5.17372 50.7544
RightForeArm  165.306 67.6843 155.688
RightHand  0.566992 0.125414 11.2114
LeftUpLeg  -46.817 13.2104 -1.33083
LeftLeg  42.5935 -0.579722 -0.176697
LeftFoot  -2.95223 0.549614 -7.22473
LeftToes  -2.53752e-010 -2.07034e-011 -2.70101e-011
41
root  79.6961 33.4275 0.926142 -16.8586 -78.4974 17.4651
RightUpLeg  -21.6539 -7.13715 -5.13171
RightLeg  60.9597 -2.44606 -5.29795
RightFoot  -35.9727 0.737707 4.5024
RightToes  1.45519e-009 0 -3.6325e-017
Spine  30.851 -1.27441 3.5315
Spine1  5.74703 -0.596765 -0.932242
HEad  -19.0604 -2.13317 -0.691439
LeftShoulder1  0.366763 2.23389 -22.5624
LeftArm  3.13867 -20.6791 -64.2868
LeftForeArm  76.1623 -79.3757 -87.5458
LeftHand  0.0554194 6.87967 6.566
RightShoulder  -0.246245 -4.25911 25.2353
RightArm  15.8427 4.2106 50.8524
RightForeArm  161.52 68.0124 154.842
RightHand  0.127611 -0.434952 4.10961
LeftUpLeg  -46.5863 12.1478 -1.763
LeftLeg  38.5084 -1.71674 -1.09269
LeftFoot  -1.88427 0.729533 -8.57928
LeftToes  -2.53752e-010 -2.07034e-011 -2.70101e-011
42
root  79.1274 33.3361 1.25438 -15.8589 -78.1007 16.9344
RightUpLeg  -21.0756 -7.89177 -5.74727
RightLeg  61.4309 -2.20131 -4.91988
RightFoot  -36.6414 0.946752 5.33309
RightToes  1.45519e-009 0 -3.6325e-017
Spine  30.9643 -1.24413 3.76126
Spine1  5.98346 -0.303616 -1.67544
HEad  -21.4187 -1.95108 -0.891879
LeftShoulder1  0.236243 2.70646 -23.2703
LeftArm  3.52186 -21.7139 -63.9417
LeftForeArm  73.0416 -79.3576 -83.6638
LeftHand  0.0361033 6.79817 5.43099
RightShoulder  -0.187722 -4.07935 24.7955
RightArm  16.6291 3.91227 51.4604
RightForeArm  154.908 69.7718 151.606
RightHand  -0.356218 6.41571 -3.69083
LeftUpLeg  -46.8516 10.6273 -2.43242
LeftLeg  37.3211 -2.99171 -2.08819
LeftFoot  0.42421 0.572488 -6.11252
LeftToes  -2.53752e-010 -2.07034e-011 -2.70101e-011
43
root  78.528 33.1937 1.65053 -14.5528 -78.6839 16.278
RightUpLeg  -20.7543 -7.77435 -6.10301
RightLeg  61.826 -1.87962 -4.35694
RightFoot  -37.5048 1.13387 5.98015
RightToes  1.45519e-009 0 -3.6325e-017
Spine  31.5648 -1.29172 4.29195
Spine1  5.1083 0.165832 -3.02083
HEad  -25.5335 -4.57731 -0.282817
LeftShoulder1  0.243805 2.68735 -23.5514
LeftArm  2.97616 -20.7472 -63.1223
LeftForeArm  74.6945 -79.3902 -85.1842
LeftHand  0.0522582 7.19449 5.39177
RightShoulder  0.00644475 -3.4571 24.4776
RightArm  17.0324 2.97839 52.0401
RightForeArm  148.778 71.3941 148.195
RightHand  -0.897997 9.98245 -6.69235
LeftUpLeg  -47.732 9.69018 -2.71084
LeftLeg  39.0952 -3.4824 -2.6421
LeftFoot  4.51252 -0.0783772 0.549044
LeftToes  -2.53752e-010 -2.07034e-011 -2.70101e-011
44
root  77.9017 32.9976 2.06595 -12.4139 -79.3031 14.8404
RightUpLeg  -20.3707 -7.23335 -6.2804
RightLeg  62.1206 -1.75703 -4.16081
RightFoot  -38.6935 1.3729 6.72651
RightToes  1.45519e-009 0 -3.6325e-017
Spine  32.1465 -0.995135 4.40266
Spine1  4.82827 0.649325 -3.43653
HEad  -25.4937 -5.10385 0.178456
LeftShoulder1  0.238542 2.69699 -23.311
LeftArm  2.40527 -20.4139 -63.2033
LeftForeArm  76.0959 -79.454 -85.1483
LeftHand  0.0335835 6.86192 5.10955
RightShoulder  0.0172416 -3.41863 24.5137
RightArm  16.7393 2.84135 52.1151
RightForeArm  162.066 69.5655 152.956
RightHand  0.279392 4.636 2.45402
LeftUpLeg  -49.3476 8.86134 -2.0733
LeftLeg  42.7798 -2.41285 -1.99006
LeftFoot  2.47706 -0.0652358 0.41388
LeftToes  -2.53752e-010 -2.07034e-011 -2.70101e-011
45
root  77.2157 32.8013 2.49664 -10.7951 -79.6944 13.7912
RightUpLeg  -19.6776 -6.81266 -6.70324
RightLeg  62.4418 -1.58215 -3.85913
RightFoot  -39.8314 1.66683 7.63264
RightToes  1.45519e-009 0 -3.6325e-017
Spine  32.3985 -0.328598 3.54128
Spine1  4.92896 0.78714 -2.14765
HEad  -26.132 -4.57638 -0.229107
LeftShoulder1  0.183206 2.90357 -24.2138
LeftArm  2.73346 -20.7523 -62.7543
LeftForeArm  74.7113 -79.4293 -83.781
LeftHand  0.0396462 6.61302 6.42748
RightShoulder  0.132275 -3.04202 24.0772
RightArm  16.9867 3.5786 52.2416
RightForeArm  156.024 70.2693 151.075
RightHand  0.0626816 1.46287 0.975754
LeftUpLeg  -50.5865 8.41338 -1.94278
LeftLeg  46.2792 -1.50028 -1.25942
LeftFoot  0.279699 -0.102112 0.996846
LeftToes  -2.53752e-010 -2.07034e-011 -2.70101e-011
46
root  76.505 32.6906 2.9588 -11.2146 -80.337 14.6071
RightUpLeg  -18.8302 -5.95301 -7.52014
RightLeg  62.6875 -1.35061 -3.41247
RightFoot  -40.2504 2.07843 9.12436
RightToes  1.45519e-009 0 -3.6325e-017
Spine  32.7405 0.0339057 2.89721
Spine1  5.13991 1.18129 -2.65405
HEad  -26.7202 -3.40589 -0.158373
LeftShoulder1  0.287089 2.55988 -24.1253
LeftArm  2.66375 -20.5764 -62.1144
LeftForeArm  74.5265 -79.4335 -83.2962
LeftHand  0.0389964 6.50546 6.92875
RightShoulder  0.14565 -2.99577 24.6815
RightArm  16.7425 4.59378 51.5163
RightForeArm  148.848 72.0929 146.957
RightHand  -0.205467 3.74202 -2.99259
LeftUpLeg  -51.1092 8.49725 -2.25137
LeftLeg  49.1725 -0.910274 -0.690372
LeftFoot  -1.74452 -0.165223 2.09465
LeftToes  -2.53752e-010 -2.07034e-011 -2.70101e-011
